# xmcd
#
# Track frame offsets: 
#        150
#        19933
#        39520
#        57728
#        75814
#        101498
#        120755
#        144665
#        161342
#        183788
#        200725
#        222959
#        238939
#        254064
#        278133
#        293224
#        310641
#
# Disc length: 4474 seconds
#
# Revision: 0
# Processed by: cddbd v1.5.2PL0 Copyright (c) Steve Scherf et al.
# Submitted via: ExactAudioCopy v0.99pb3
#
DISCID=f0117811
DTITLE=Thomas Scott Pearce - Rings In The Water
DYEAR=2008
DGENRE=Blues
TTITLE0=Better Man
TTITLE1=Medicine Woman
TTITLE2=No Tears
TTITLE3=Mabel Gray
TTITLE4=Corporal Red
TTITLE5=Pull Down The Shades
TTITLE6=Short Time Here
TTITLE7=Cricketville
TTITLE8=Stepping Through A Window
TTITLE9=She Feels Like Christas Time
TTITLE10=Rings In The Water
TTITLE11=Somewhere Over That Rainbow
TTITLE12=Tobacco Road
TTITLE13=I'm Gonna Burn The Crackhouse Down
TTITLE14=When You Gonna Slow It Down
TTITLE15=Waiting On A Train
TTITLE16=Last Man Standing
EXTD=
EXTT0=
EXTT1=
EXTT2=
EXTT3=
EXTT4=
EXTT5=
EXTT6=
EXTT7=
EXTT8=
EXTT9=
EXTT10=
EXTT11=
EXTT12=
EXTT13=
EXTT14=
EXTT15=
EXTT16=
PLAYORDER=
